<svg width="17" height="17" viewBox="0 0 17 17" fill="none" xmlns="http://www.w3.org/2000/svg">
<path d="M2.62156 9.66776L3.11211 9.57097L3.03255 9.16776H2.62156V9.66776ZM3.51292 11.821L3.86647 12.1745L4.1557 11.8853L3.92952 11.5445L3.51292 11.821ZM2.81536 12.5185L3.16886 12.8721L3.16891 12.8721L2.81536 12.5185ZM2.81536 13.4207L2.46161 13.774L2.46181 13.7742L2.81536 13.4207ZM3.57373 14.179L3.22018 14.5326L3.22037 14.5328L3.57373 14.179ZM4.47588 14.179L4.82938 14.5326L4.82943 14.5326L4.47588 14.179ZM5.17343 13.4815L5.45255 13.0666L5.11099 12.8368L4.81988 13.1279L5.17343 13.4815ZM7.32636 14.3726H7.82636V13.9621L7.42373 13.8821L7.32636 14.3726ZM9.67336 14.3726L9.57667 13.882L9.17336 13.9615V14.3726H9.67336ZM11.8266 13.4815L12.1802 13.128L11.8909 12.8386L11.5501 13.0649L11.8266 13.4815ZM12.5238 14.179L12.1702 14.5325L12.1705 14.5328L12.5238 14.179ZM13.426 14.179L13.7795 14.5326V14.5326L13.426 14.179ZM14.1844 13.4207L13.8308 13.0671V13.0671L14.1844 13.4207ZM14.1844 12.5185L13.8307 12.872L13.8311 12.8723L14.1844 12.5185ZM13.4871 11.821L13.0721 11.5421L12.8426 11.8835L13.1335 12.1744L13.4871 11.821ZM14.3782 9.66776V9.16776H13.9676L13.8877 9.57046L14.3782 9.66776ZM14.3782 7.32643L13.8876 7.42308L13.9671 7.82643H14.3782V7.32643ZM13.4871 5.1735L13.1335 4.82002L12.8443 5.10932L13.0705 5.45008L13.4871 5.1735ZM14.1844 4.47595L13.831 4.1222L13.8307 4.12246L14.1844 4.47595ZM14.1844 3.57373L14.5377 3.21998L14.5366 3.21891L14.1844 3.57373ZM13.4206 2.81543L13.0672 3.16913L13.0683 3.17025L13.4206 2.81543ZM12.5184 2.81543L12.1649 2.46188V2.46188L12.5184 2.81543ZM11.8209 3.51298L11.5417 3.9278L11.8833 4.15767L12.1744 3.86654L11.8209 3.51298ZM9.66797 2.62163H9.16797V3.03201L9.57047 3.11203L9.66797 2.62163ZM7.32096 2.62163L7.41778 3.11217L7.82096 3.03259V2.62163H7.32096ZM5.16776 3.51298L4.81276 3.86509L5.10205 4.15675L5.44429 3.92955L5.16776 3.51298ZM4.47588 2.81543L4.83087 2.46332L4.82943 2.46188L4.47588 2.81543ZM3.57373 2.81543L3.22033 2.46173L3.22019 2.46186L3.57373 2.81543ZM2.81536 3.57373L2.46182 3.22016L2.46181 3.22018L2.81536 3.57373ZM2.81536 4.47595L3.16891 4.12239H3.16891L2.81536 4.47595ZM3.51292 5.1735L3.92775 5.45262L4.15758 5.11106L3.86647 4.81995L3.51292 5.1735ZM2.62156 7.32643V7.82643H3.03195L3.11197 7.42392L2.62156 7.32643ZM1.63646 10.1678H2.62156V9.16776H1.63646V10.1678ZM2.13102 9.76455C2.29946 10.6182 2.63589 11.4037 3.09631 12.0974L3.92952 11.5445C3.53754 10.9538 3.25391 10.2897 3.11211 9.57097L2.13102 9.76455ZM3.15936 11.4674L2.46181 12.165L3.16891 12.8721L3.86647 12.1745L3.15936 11.4674ZM2.46186 12.1649C2.01745 12.6092 2.01781 13.3297 2.46161 13.774L3.16911 13.0673C3.11504 13.0132 3.11539 12.9256 3.16886 12.8721L2.46186 12.1649ZM2.46181 13.7742L3.22018 14.5326L3.92729 13.8255L3.16891 13.0671L2.46181 13.7742ZM3.22037 14.5328C3.66466 14.9766 4.38511 14.9768 4.82938 14.5326L4.12237 13.8254C4.06877 13.879 3.9811 13.8792 3.92709 13.8253L3.22037 14.5328ZM4.82943 14.5326L5.52699 13.835L4.81988 13.1279L4.12232 13.8255L4.82943 14.5326ZM4.89431 13.8963C5.59181 14.3656 6.38455 14.6953 7.22899 14.863L7.42373 13.8821C6.7077 13.74 6.03878 13.4611 5.45255 13.0666L4.89431 13.8963ZM6.82636 14.3726V15.3579H7.82636V14.3726H6.82636ZM6.82636 15.3579C6.82636 15.9914 7.34109 16.4944 7.9631 16.4944V15.4944C7.88728 15.4944 7.82636 15.4331 7.82636 15.3579H6.82636ZM7.9631 16.4944H9.0369V15.4944H7.9631V16.4944ZM9.0369 16.4944C9.67025 16.4944 10.1734 15.9798 10.1734 15.3579H9.17336C9.17336 15.4333 9.11217 15.4944 9.0369 15.4944V16.4944ZM10.1734 15.3579V14.3726H9.17336V15.3579H10.1734ZM9.77006 14.8631C10.6235 14.6949 11.4093 14.3585 12.1031 13.8981L11.5501 13.0649C10.9596 13.4568 10.2951 13.7404 9.57667 13.882L9.77006 14.8631ZM11.4729 13.835L12.1702 14.5325L12.8775 13.8256L12.1802 13.128L11.4729 13.835ZM12.1705 14.5328C12.6148 14.9765 13.3353 14.9769 13.7795 14.5326L13.0724 13.8255C13.019 13.879 12.9313 13.8793 12.8772 13.8252L12.1705 14.5328ZM13.7795 14.5326L14.5379 13.7742L13.8308 13.0671L13.0724 13.8255L13.7795 14.5326ZM14.5379 13.7742C14.9823 13.3299 14.9826 12.609 14.5377 12.1647L13.8311 12.8723C13.8845 12.9257 13.8849 13.013 13.8308 13.0671L14.5379 13.7742ZM14.538 12.165L13.8407 11.4675L13.1335 12.1744L13.8307 12.872L14.538 12.165ZM13.9021 12.0999C14.3709 11.4023 14.701 10.61 14.8686 9.76505L13.8877 9.57046C13.7457 10.2865 13.4665 10.9552 13.0721 11.5421L13.9021 12.0999ZM14.3782 10.1678H15.3633V9.16776H14.3782V10.1678ZM15.3633 10.1678C15.9964 10.1678 16.5 9.65332 16.5 9.03123H15.5C15.5 9.10642 15.4387 9.16776 15.3633 9.16776V10.1678ZM16.5 9.03123V7.96317H15.5V9.03123H16.5ZM16.5 7.96317C16.5 7.32996 15.9856 6.82643 15.3633 6.82643V7.82643C15.4388 7.82643 15.5 7.88775 15.5 7.96317H16.5ZM15.3633 6.82643H14.3782V7.82643H15.3633V6.82643ZM14.8687 7.22978C14.7006 6.37625 14.3641 5.59045 13.9036 4.89692L13.0705 5.45008C13.4624 6.04027 13.7461 6.70465 13.8876 7.42308L14.8687 7.22978ZM13.8407 5.52698L14.538 4.82943L13.8307 4.12246L13.1335 4.82002L13.8407 5.52698ZM14.5377 4.8297C14.9825 4.38545 14.9825 3.66423 14.5377 3.21998L13.831 3.92748C13.8847 3.98111 13.8847 4.06856 13.831 4.1222L14.5377 4.8297ZM14.5366 3.21891L13.7729 2.46061L13.0683 3.17025L13.8321 3.92855L14.5366 3.21891ZM13.774 2.46173C13.3297 2.0178 12.6092 2.01759 12.1649 2.46188L12.872 3.16898C12.9256 3.11539 13.0132 3.11518 13.0672 3.16913L13.774 2.46173ZM12.1649 2.46188L11.4673 3.15943L12.1744 3.86654L12.872 3.16898L12.1649 2.46188ZM12.1 3.09817C11.4025 2.62877 10.6098 2.2991 9.76546 2.13123L9.57047 3.11203C10.2866 3.25441 10.9555 3.53331 11.5417 3.9278L12.1 3.09817ZM10.168 2.62163V1.63646H9.16797V2.62163H10.168ZM10.168 1.63646C10.168 1.00297 9.65324 0.5 9.03123 0.5V1.5C9.10705 1.5 9.16797 1.56133 9.16797 1.63646H10.168ZM9.03123 0.5H7.95743V1.5H9.03123V0.5ZM7.95743 0.5C7.32407 0.5 6.82096 1.01459 6.82096 1.63646H7.82096C7.82096 1.56106 7.88215 1.5 7.95743 1.5V0.5ZM6.82096 1.63646V2.62163H7.82096V1.63646H6.82096ZM7.22414 2.1311C6.37083 2.29952 5.58503 2.63585 4.89123 3.09641L5.44429 3.92955C6.03476 3.53758 6.69929 3.25398 7.41778 3.11217L7.22414 2.1311ZM5.52275 3.16088L4.83087 2.46332L4.12088 3.16754L4.81276 3.86509L5.52275 3.16088ZM4.82943 2.46188C4.38515 2.01759 3.66462 2.0178 3.22033 2.46173L3.92714 3.16913C3.98114 3.11518 4.06873 3.11539 4.12232 3.16898L4.82943 2.46188ZM3.22019 2.46186L2.46182 3.22016L3.1689 3.9273L3.92727 3.169L3.22019 2.46186ZM2.46181 3.22018C2.01761 3.66438 2.01761 4.3853 2.46181 4.8295L3.16891 4.12239C3.11524 4.06872 3.11524 3.98096 3.16891 3.92728L2.46181 3.22018ZM2.46181 4.8295L3.15936 5.52705L3.86647 4.81995L3.16891 4.12239L2.46181 4.8295ZM3.09808 4.89438C2.62879 5.59185 2.29903 6.38448 2.13116 7.22894L3.11197 7.42392C3.25433 6.70777 3.5333 6.03887 3.92775 5.45262L3.09808 4.89438ZM2.62156 6.82643H1.63646V7.82643H2.62156V6.82643ZM1.63646 6.82643C1.00297 6.82643 0.5 7.34116 0.5 7.96317H1.5C1.5 7.88735 1.56133 7.82643 1.63646 7.82643V6.82643ZM0.5 7.96317V9.0369H1.5V7.96317H0.5ZM0.5 9.0369C0.5 9.66453 1.00886 10.1678 1.63646 10.1678V9.16776C1.55544 9.16776 1.5 9.10655 1.5 9.0369H0.5ZM8.49446 6.28208C9.71824 6.28208 10.712 7.27599 10.712 8.49993H11.712C11.712 6.72387 10.2707 5.28208 8.49446 5.28208V6.28208ZM10.712 8.49993C10.712 9.72379 9.71825 10.7177 8.49446 10.7177V11.7177C10.2707 11.7177 11.712 10.2759 11.712 8.49993H10.712ZM8.49446 10.7177C7.27062 10.7177 6.27668 9.72373 6.27668 8.49993H5.27668C5.27668 10.276 6.71831 11.7177 8.49446 11.7177V10.7177ZM6.27668 8.49993C6.27668 7.27606 7.27062 6.28208 8.49446 6.28208V5.28208C6.71831 5.28208 5.27668 6.7238 5.27668 8.49993H6.27668Z" fill="#011B33"/>
</svg>
