<svg width="89" height="24" viewBox="0 0 89 24" fill="none" xmlns="http://www.w3.org/2000/svg">
<path fill-rule="evenodd" clip-rule="evenodd" d="M41.2145 4.5527C41.3546 4.5527 41.4941 4.59707 41.6342 4.68361C41.7743 4.77161 41.8444 4.96216 41.8444 5.25889V7.84579C41.8444 8.14325 41.7568 8.33379 41.5816 8.42107C41.4072 8.50834 41.267 8.55198 41.1619 8.55198H40.4802C39.6583 8.55198 39.0379 8.76507 38.6174 9.19198C38.1985 9.61961 37.9883 10.3207 37.9883 11.296V17.4894C37.9883 17.6465 37.9269 17.7731 37.8051 17.8691C37.6824 17.9643 37.551 18.0123 37.4116 18.0123H34.762C34.6044 18.0123 34.4737 17.9607 34.3686 17.8552C34.2635 17.7505 34.2109 17.6203 34.2109 17.4632V5.49379C34.2109 5.3367 34.2635 5.20216 34.3686 5.08798C34.4737 4.97525 34.6044 4.91852 34.762 4.91852H37.2802C37.4197 4.91852 37.5467 4.97089 37.6605 5.07561C37.7737 5.17961 37.8306 5.30179 37.8306 5.44143V6.48652C38.1802 5.92943 38.6174 5.31561 39.1423 5.01016C39.6671 4.70616 40.2349 4.5527 40.8473 4.5527H41.2145Z" fill="#051C31"/>
<path fill-rule="evenodd" clip-rule="evenodd" d="M61.5955 11.2956C61.5955 11.732 61.6743 12.1494 61.8313 12.5502C61.9889 12.9509 62.2072 13.2949 62.4875 13.5829C62.767 13.8702 63.0991 14.1007 63.4838 14.2753C63.8685 14.4498 64.2794 14.5363 64.7166 14.5363C65.1714 14.5363 65.5867 14.4498 65.9626 14.2753C66.3392 14.1007 66.667 13.8702 66.9465 13.5829C67.2261 13.2949 67.4451 12.9509 67.602 12.5502C67.7597 12.1494 67.8385 11.732 67.8385 11.2956C67.8385 10.8425 67.7597 10.42 67.602 10.028C67.4451 9.63598 67.2261 9.29634 66.9465 9.00834C66.667 8.72107 66.3392 8.49052 65.9626 8.31598C65.5867 8.14216 65.1714 8.05489 64.7166 8.05489C64.2794 8.05489 63.8685 8.14216 63.4838 8.31598C63.0991 8.49052 62.767 8.72107 62.4875 9.00834C62.2072 9.29634 61.9889 9.63598 61.8313 10.028C61.6743 10.42 61.5955 10.8425 61.5955 11.2956ZM57.7656 11.2694C57.7656 10.2418 57.9452 9.3138 58.3036 8.48616C58.6612 7.65852 59.1386 6.95307 59.7328 6.36907C60.3276 5.7858 61.0094 5.33707 61.7787 5.02289C62.5488 4.70943 63.3444 4.55307 64.1663 4.55307C65.0225 4.55307 65.775 4.7138 66.4217 5.03671C67.0692 5.35889 67.5407 5.77198 67.8385 6.27816V5.49343C67.8385 5.33707 67.8947 5.2018 68.0093 5.08834C68.1224 4.97562 68.2494 4.91816 68.3896 4.91816H71.0384C71.1961 4.91816 71.3275 4.97562 71.4319 5.08834C71.537 5.2018 71.5895 5.33707 71.5895 5.49343V17.4629C71.5895 17.62 71.537 17.7509 71.4319 17.8556C71.3275 17.9603 71.1961 18.012 71.0384 18.012H68.3896C68.2494 18.012 68.1224 17.9603 68.0093 17.8556C67.8947 17.7509 67.8385 17.62 67.8385 17.4629V16.2876C67.5407 16.7938 67.0648 17.2069 66.4086 17.5291C65.7531 17.8513 64.9962 18.012 64.14 18.012C63.3174 18.012 62.5225 17.8563 61.7524 17.5422C60.9831 17.228 60.3057 16.7756 59.7203 16.1829C59.1335 15.5909 58.6612 14.8811 58.3036 14.0527C57.9452 13.2251 57.7656 12.2978 57.7656 11.2694Z" fill="#051C31"/>
<path fill-rule="evenodd" clip-rule="evenodd" d="M46.0934 11.2956C46.0934 11.732 46.1722 12.1494 46.3291 12.5502C46.4868 12.9509 46.705 13.2949 46.9853 13.5829C47.2649 13.8702 47.597 14.1007 47.9817 14.2753C48.3663 14.4498 48.7773 14.5363 49.2145 14.5363C49.6692 14.5363 50.0846 14.4498 50.4605 14.2753C50.8371 14.1007 51.1648 13.8702 51.4444 13.5829C51.7239 13.2949 51.9429 12.9509 52.0999 12.5502C52.2575 12.1494 52.3363 11.732 52.3363 11.2956C52.3363 10.8425 52.2575 10.42 52.0999 10.028C51.9429 9.63598 51.7239 9.29634 51.4444 9.00834C51.1648 8.72107 50.8371 8.49052 50.4605 8.31598C50.0846 8.14216 49.6692 8.05489 49.2145 8.05489C48.7773 8.05489 48.3663 8.14216 47.9817 8.31598C47.597 8.49052 47.2649 8.72107 46.9853 9.00834C46.705 9.29634 46.4868 9.63598 46.3291 10.028C46.1722 10.42 46.0934 10.8425 46.0934 11.2956ZM42.2635 11.2694C42.2635 10.2418 42.443 9.3138 42.8014 8.48616C43.1591 7.65852 43.6365 6.95307 44.2306 6.36907C44.8255 5.7858 45.5072 5.33707 46.2766 5.02289C47.0466 4.70943 47.8422 4.55307 48.6641 4.55307C49.5203 4.55307 50.2729 4.7138 50.9196 5.03671C51.567 5.35889 52.0385 5.77198 52.3363 6.27816V5.49343C52.3363 5.33707 52.3926 5.2018 52.5071 5.08834C52.6203 4.97562 52.7473 4.91816 52.8874 4.91816H55.5363C55.694 4.91816 55.8254 4.97562 55.9297 5.08834C56.0348 5.2018 56.0874 5.33707 56.0874 5.49343V17.4629C56.0874 17.62 56.0348 17.7509 55.9297 17.8556C55.8254 17.9603 55.694 18.012 55.5363 18.012H52.8874C52.7473 18.012 52.6203 17.9603 52.5071 17.8556C52.3926 17.7509 52.3363 17.62 52.3363 17.4629V16.2876C52.0385 16.7938 51.5626 17.2069 50.9064 17.5291C50.251 17.8513 49.4941 18.012 48.6379 18.012C47.8152 18.012 47.0204 17.8563 46.2503 17.5422C45.481 17.228 44.8036 16.7756 44.2182 16.1829C43.6314 15.5909 43.1591 14.8811 42.8014 14.0527C42.443 13.2251 42.2635 12.2978 42.2635 11.2694Z" fill="#051C31"/>
<mask id="mask0" mask-type="alpha" maskUnits="userSpaceOnUse" x="73" y="4" width="15" height="20">
<path fill-rule="evenodd" clip-rule="evenodd" d="M73.8448 23.318H87.6688V4.55307H73.8448L73.8448 23.318H73.8448Z" fill="white"/>
</mask>
<g mask="url(#mask0)">
<path fill-rule="evenodd" clip-rule="evenodd" d="M77.5959 11.2956C77.5959 11.7487 77.6747 12.1713 77.8324 12.5633C77.9893 12.9553 78.2127 13.3 78.501 13.5953C78.7893 13.892 79.1258 14.1233 79.5112 14.2883C79.8951 14.4542 80.3061 14.5363 80.7433 14.5363C81.198 14.5363 81.6134 14.4542 81.99 14.2883C82.3652 14.1233 82.6929 13.892 82.9732 13.5953C83.2528 13.3 83.4717 12.9553 83.6294 12.5633C83.7863 12.1713 83.8652 11.7487 83.8652 11.2956C83.8652 10.8425 83.7863 10.42 83.6294 10.028C83.4717 9.63598 83.2528 9.29634 82.9732 9.00834C82.6929 8.72107 82.3652 8.49052 81.99 8.31598C81.6134 8.14216 81.198 8.05489 80.7433 8.05489C80.3061 8.05489 79.8951 8.14216 79.5112 8.31598C79.1258 8.49052 78.7893 8.72107 78.501 9.00834C78.2127 9.29634 77.9893 9.63598 77.8324 10.028C77.6747 10.42 77.5959 10.8425 77.5959 11.2956ZM77.5696 6.27816C77.9368 5.77198 78.4484 5.35889 79.1039 5.03671C79.7601 4.7138 80.5251 4.55307 81.3995 4.55307C82.2389 4.55307 83.0345 4.70943 83.7863 5.02289C84.5381 5.33707 85.2031 5.7858 85.7797 6.36907C86.3571 6.95307 86.8162 7.65852 87.1571 8.48616C87.498 9.3138 87.6688 10.2418 87.6688 11.2694C87.6688 12.2978 87.498 13.2251 87.1571 14.0527C86.8162 14.8811 86.3571 15.5909 85.7797 16.1829C85.2031 16.7756 84.5294 17.228 83.76 17.5422C82.9907 17.8563 82.1863 18.012 81.3469 18.012C80.6294 18.012 79.9214 17.8862 79.2221 17.6338C78.5229 17.3814 77.9893 16.9843 77.6222 16.444V22.7691C77.6222 22.9262 77.5652 23.0571 77.4514 23.1611C77.3375 23.2658 77.2112 23.3182 77.0711 23.3182H74.3959C74.2383 23.3182 74.1076 23.2658 74.0025 23.1611C73.8974 23.0571 73.8448 22.9262 73.8448 22.7691V5.49343C73.8448 5.33707 73.8974 5.2018 74.0025 5.08834C74.1076 4.97562 74.2383 4.91816 74.3959 4.91816H77.0185C77.1762 4.91816 77.3076 4.97562 77.4127 5.08834C77.5171 5.2018 77.5696 5.33707 77.5696 5.49343V6.27816Z" fill="#051C31"/>
</g>
<mask id="mask1" mask-type="alpha" maskUnits="userSpaceOnUse" x="0" y="0" width="17" height="18">
<path fill-rule="evenodd" clip-rule="evenodd" d="M16.9378 0.727478L0.000427246 0.727478L0.000427246 17.6044H16.9378V0.727478Z" fill="white"/>
</mask>
<g mask="url(#mask1)">
<path fill-rule="evenodd" clip-rule="evenodd" d="M6.583 16.8254L0.781621 11.0451C-0.259971 10.0073 -0.259971 8.32436 0.781621 7.28654L6.583 1.50617C7.6246 0.467628 9.31363 0.467628 10.3552 1.50617L16.1566 7.28654C17.1982 8.32436 17.1982 10.0073 16.1566 11.0451L10.3552 16.8254C9.31363 17.864 7.6246 17.864 6.583 16.8254Z" fill="#3EB65E"/>
</g>
<mask id="mask2" mask-type="alpha" maskUnits="userSpaceOnUse" x="9" y="0" width="18" height="18">
<path fill-rule="evenodd" clip-rule="evenodd" d="M26.5123 0.727478H9.57416L9.57416 17.6044H26.5123V0.727478V0.727478Z" fill="white"/>
</mask>
<g mask="url(#mask2)">
<path fill-rule="evenodd" clip-rule="evenodd" d="M16.1567 16.8254L10.3554 11.0451C9.31376 10.0073 9.31376 8.32436 10.3554 7.28654L16.1567 1.50617C17.1983 0.467628 18.8874 0.467628 19.9289 1.50617L25.7311 7.28654C26.7727 8.32436 26.7727 10.0073 25.7311 11.0451L19.9289 16.8254C18.8874 17.864 17.1983 17.864 16.1567 16.8254Z" fill="#0BA4D9"/>
</g>
<path fill-rule="evenodd" clip-rule="evenodd" d="M13.256 4.39578L10.3553 7.28669C9.3137 8.32378 9.3137 10.0074 10.3553 11.0452L13.256 13.9354L16.1567 11.0452C17.1983 10.0074 17.1983 8.32378 16.1567 7.28669L13.256 4.39578Z" fill="#051C31"/>
</svg>
