<svg width="15" height="13" viewBox="0 0 15 13" fill="none" xmlns="http://www.w3.org/2000/svg">
<path fill-rule="evenodd" clip-rule="evenodd" d="M6.075 11.8903C6.05621 11.837 6.04937 11.7916 6.05563 11.7552C6.06248 11.7188 6.04034 11.6888 5.98966 11.6656C5.9384 11.6424 5.91335 11.6238 5.91335 11.6107C5.91335 11.5975 5.87694 11.5873 5.80413 11.5807C5.73131 11.5741 5.6949 11.5712 5.6949 11.5712H2.7335C2.31583 11.5712 1.95859 11.4146 1.66107 11.1023C1.36354 10.7899 1.21515 10.4145 1.21515 9.97606V2.9582C1.21515 2.51956 1.36354 2.1444 1.66107 1.83194C1.95859 1.51948 2.31583 1.36302 2.7335 1.36302H5.77121C5.85306 1.36302 5.91801 1.34207 5.96578 1.29848C6.01296 1.25551 6.04485 1.19035 6.06015 1.10425C6.07617 1.01768 6.08578 0.939376 6.08913 0.870094C6.09204 0.8002 6.09087 0.712412 6.08403 0.606117C6.07777 0.49967 6.075 0.432835 6.075 0.406529C6.075 0.319964 6.04485 0.245176 5.98456 0.181859C5.92427 0.119153 5.85306 0.0874939 5.77121 0.0874939H2.7335C1.98087 0.0874939 1.33689 0.368294 0.802136 0.929894C0.267379 1.49149 0 2.1678 0 2.9582V9.97606C0 10.7671 0.267379 11.4428 0.802136 12.0044C1.33689 12.5666 1.98087 12.8474 2.7335 12.8474H5.77121C5.85364 12.8474 5.91801 12.8252 5.96578 12.7822C6.01296 12.7392 6.04485 12.6741 6.06073 12.588C6.07675 12.5014 6.08578 12.4231 6.08913 12.3538C6.09204 12.2839 6.09087 12.1962 6.08403 12.0899C6.07777 11.9834 6.075 11.9166 6.075 11.8903Z" fill="#7C86A2"/>
<path fill-rule="evenodd" clip-rule="evenodd" d="M14.7031 6.0187L9.53942 0.595866C9.41942 0.469842 9.27714 0.406525 9.11214 0.406525C8.94772 0.406525 8.80559 0.469842 8.68501 0.595866C8.56486 0.721889 8.50457 0.871925 8.50457 1.0446V3.91515H4.25229C4.08787 3.91515 3.94573 3.97847 3.82515 4.10464C3.70501 4.23128 3.64471 4.38055 3.64471 4.55322V8.38149C3.64471 8.55416 3.70501 8.70358 3.82515 8.82961C3.94573 8.95624 4.08787 9.01956 4.25229 9.01956H8.50457V11.8903C8.50457 12.0629 8.56486 12.2128 8.68501 12.3388C8.80559 12.465 8.94772 12.5283 9.11214 12.5283C9.27714 12.5283 9.41942 12.465 9.53942 12.3388L14.7031 6.91601C14.8236 6.78998 14.8834 6.6401 14.8834 6.46743C14.8834 6.29476 14.8236 6.14472 14.7031 6.0187Z" fill="#7C86A2"/>
</svg>
