<svg width="17" height="17" viewBox="0 0 17 17" fill="none" xmlns="http://www.w3.org/2000/svg">
<path fill-rule="evenodd" clip-rule="evenodd" d="M11.875 16C14.1532 16 16 14.1532 16 11.875C16 9.59683 14.1532 7.75 11.875 7.75C9.59683 7.75 7.75 9.59683 7.75 11.875C7.75 14.1532 9.59683 16 11.875 16Z" stroke="#7C86A2"/>
<path d="M11.875 9.625V14.125" stroke="#7C86A2" stroke-linecap="round" stroke-linejoin="round"/>
<path d="M9.625 11.875H14.125" stroke="#7C86A2" stroke-linecap="round" stroke-linejoin="round"/>
<path d="M8.12004 1.35353L1.42694 1.33781L1.44891 15.6101L6.72168 15.6462" stroke="#7C86A2" stroke-linecap="round" stroke-linejoin="round"/>
<path d="M3.625 5.125H5.875" stroke="#7C86A2" stroke-linecap="round" stroke-linejoin="round"/>
<path d="M3.625 7.37499L7.7534 7.37256" stroke="#7C86A2" stroke-linecap="round" stroke-linejoin="round"/>
<path d="M3.625 9.62501L6.25259 9.61407" stroke="#7C86A2" stroke-linecap="round" stroke-linejoin="round"/>
<path d="M3.625 11.875H5.125" stroke="#7C86A2" stroke-linecap="round" stroke-linejoin="round"/>
<path fill-rule="evenodd" clip-rule="evenodd" d="M11.2276 4.7099H8.16937L8.151 1.356L11.887 4.7099H11.2276Z" stroke="#7C86A2" stroke-linecap="round" stroke-linejoin="round"/>
</svg>
