<svg width="20" height="16" viewBox="0 0 20 16" fill="none" xmlns="http://www.w3.org/2000/svg">
<path fill-rule="evenodd" clip-rule="evenodd" d="M18.9942 12.1363C17.9581 11.2702 16.8429 10.6492 16.3946 10.4153V8.92445C16.6358 8.6905 16.7752 8.36859 16.7752 8.02368V6.10333C16.7752 4.93834 15.8445 3.99153 14.6992 3.99153H14.2922C13.147 3.99153 12.2163 4.93834 12.2163 6.10333V8.02368C12.2163 8.36859 12.3558 8.6905 12.5967 8.92445V9.25828C12.5967 9.46899 12.7627 9.63764 12.9698 9.63764C13.177 9.63764 13.3427 9.46899 13.3427 9.25828V8.74421C13.3427 8.61773 13.2787 8.49886 13.177 8.43001C13.0414 8.33793 12.9623 8.18859 12.9623 8.02368V6.10333C12.9623 5.35981 13.5576 4.75043 14.2922 4.75043H14.6992C15.43 4.75043 16.0292 5.35602 16.0292 6.10333V8.02368C16.0292 8.18859 15.9501 8.33793 15.8144 8.43001C15.7089 8.49886 15.6486 8.61773 15.6486 8.74421V10.5995C15.6486 10.7758 15.7503 10.9404 15.9048 11.0172C16.1422 11.136 17.3781 11.7721 18.5196 12.7227C18.644 12.8261 18.7155 12.9834 18.7155 13.1482V14.4667C18.7155 14.6775 18.8813 14.8461 19.0884 14.8461C19.2957 14.8461 19.4615 14.6775 19.4615 14.4667V13.1482C19.4615 12.7534 19.2919 12.3854 18.9942 12.1363Z" fill="#7C86A2" stroke="#7C86A2" stroke-width="0.5"/>
<path fill-rule="evenodd" clip-rule="evenodd" d="M7.57834 1.02108H7.05086C5.63046 1.02108 4.47388 2.19772 4.47388 3.6427V6.13031C4.47388 6.55964 4.65473 6.96573 4.96725 7.24945V9.29615C4.43615 9.57216 2.94783 10.3808 1.56148 11.5384C1.20713 11.8375 1 12.2819 1 12.761V14.4667C1 14.6775 1.16578 14.8461 1.37309 14.8461H13.2636C13.471 14.8461 13.6367 14.6775 13.6367 14.4667V12.761C13.6367 12.2859 13.4296 11.8375 13.0677 11.5384C11.6814 10.3808 10.193 9.56823 9.66195 9.29615V7.24945C9.97452 6.96573 10.1553 6.56337 10.1553 6.13031V3.63896C10.1553 2.19393 8.99874 1.02108 7.57834 1.02108ZM9.18713 9.898C9.49598 10.0513 11.1087 10.8793 12.5931 12.121C12.7815 12.2782 12.8869 12.512 12.8869 12.7573V14.0835H1.746V12.761C1.746 12.512 1.85526 12.2782 2.03978 12.1249C3.5281 10.883 5.13689 10.055 5.44575 9.90173C5.61171 9.81756 5.71711 9.64872 5.71711 9.46101V7.06155C5.71711 6.93521 5.65311 6.81639 5.55138 6.74735C5.34788 6.60942 5.22355 6.3794 5.22355 6.13031V3.63896C5.22355 2.61166 6.04494 1.77625 7.05458 1.77625H7.5822C8.59179 1.77625 9.41323 2.61166 9.41323 3.63896V6.12638C9.41323 6.37566 9.29253 6.60549 9.0854 6.74357C8.97995 6.81246 8.91962 6.93128 8.91962 7.05781V9.45708C8.91576 9.64498 9.02135 9.81756 9.18713 9.898Z" fill="#7C86A2"/>
<path d="M4.96725 7.24945H5.21725V7.13876L5.13529 7.06435L4.96725 7.24945ZM4.96725 9.29615L5.08254 9.51798L5.21725 9.44797V9.29615H4.96725ZM1.56148 11.5384L1.40124 11.3465L1.40023 11.3474L1.56148 11.5384ZM13.0677 11.5384L12.9075 11.7303L12.9085 11.7311L13.0677 11.5384ZM9.66195 9.29615H9.41195V9.44897L9.54796 9.51865L9.66195 9.29615ZM9.66195 7.24945L9.49392 7.06434L9.41195 7.13875V7.24945H9.66195ZM9.18713 9.898L9.29826 9.67405L9.29627 9.67308L9.18713 9.898ZM12.5931 12.121L12.4327 12.3128L12.4329 12.313L12.5931 12.121ZM12.8869 14.0835V14.3335H13.1369V14.0835H12.8869ZM1.746 14.0835H1.496V14.3335H1.746V14.0835ZM2.03978 12.1249L2.19952 12.3172L2.19995 12.3169L2.03978 12.1249ZM5.44575 9.90173L5.55691 10.1257L5.55883 10.1247L5.44575 9.90173ZM5.55138 6.74735L5.69177 6.54049L5.69165 6.54041L5.55138 6.74735ZM9.0854 6.74357L9.22215 6.95286L9.22407 6.95158L9.0854 6.74357ZM8.91962 9.45708L9.16962 9.46221V9.45708H8.91962ZM7.57834 0.77108H7.05086V1.27108H7.57834V0.77108ZM7.05086 0.77108C5.48835 0.77108 4.22388 2.06371 4.22388 3.6427H4.72388C4.72388 2.33172 5.77256 1.27108 7.05086 1.27108V0.77108ZM4.22388 3.6427V6.13031H4.72388V3.6427H4.22388ZM4.22388 6.13031C4.22388 6.62991 4.43432 7.10329 4.79921 7.43455L5.13529 7.06435C4.87513 6.82816 4.72388 6.48937 4.72388 6.13031H4.22388ZM4.71725 7.24945V9.29615H5.21725V7.24945H4.71725ZM4.85197 9.07431C4.31503 9.35336 2.80812 10.1718 1.40124 11.3465L1.72171 11.7303C3.08754 10.5899 4.55728 9.79095 5.08254 9.51798L4.85197 9.07431ZM1.40023 11.3474C0.988787 11.6946 0.75 12.2094 0.75 12.761H1.25C1.25 12.3545 1.42547 11.9803 1.72272 11.7295L1.40023 11.3474ZM0.75 12.761V14.4667H1.25V12.761H0.75ZM0.75 14.4667C0.75 14.8116 1.02376 15.0961 1.37309 15.0961V14.5961C1.30779 14.5961 1.25 14.5434 1.25 14.4667H0.75ZM1.37309 15.0961H13.2636V14.5961H1.37309V15.0961ZM13.2636 15.0961C13.613 15.0961 13.8867 14.8115 13.8867 14.4667H13.3867C13.3867 14.5434 13.329 14.5961 13.2636 14.5961V15.0961ZM13.8867 14.4667V12.761H13.3867V14.4667H13.8867ZM13.8867 12.761C13.8867 12.2133 13.6478 11.6935 13.227 11.3457L12.9085 11.7311C13.2114 11.9815 13.3867 12.3585 13.3867 12.761H13.8867ZM13.228 11.3465C11.8213 10.172 10.3147 9.34964 9.77593 9.07364L9.54796 9.51865C10.0714 9.78682 11.5414 10.5897 12.9075 11.7303L13.228 11.3465ZM9.91195 9.29615V7.24945H9.41195V9.29615H9.91195ZM9.82997 7.43457C10.1947 7.10351 10.4053 6.63396 10.4053 6.13031H9.90532C9.90532 6.49279 9.75435 6.82794 9.49392 7.06434L9.82997 7.43457ZM10.4053 6.13031V3.63896H9.90532V6.13031H10.4053ZM10.4053 3.63896C10.4053 2.05945 9.14038 0.77108 7.57834 0.77108V1.27108C8.8571 1.27108 9.90532 2.32841 9.90532 3.63896H10.4053ZM9.076 10.1219C9.37829 10.2719 10.9706 11.0897 12.4327 12.3128L12.7535 11.9292C11.2468 10.6688 9.61368 9.83058 9.29826 9.67406L9.076 10.1219ZM12.4329 12.313C12.5623 12.4209 12.6369 12.5833 12.6369 12.7573H13.1369C13.1369 12.4406 13.0007 12.1355 12.7533 11.929L12.4329 12.313ZM12.6369 12.7573V14.0835H13.1369V12.7573H12.6369ZM12.8869 13.8335H1.746V14.3335H12.8869V13.8335ZM1.996 14.0835V12.761H1.496V14.0835H1.996ZM1.996 12.761C1.996 12.5845 2.07357 12.4219 2.19952 12.3172L1.88004 11.9326C1.63695 12.1345 1.496 12.4394 1.496 12.761H1.996ZM2.19995 12.3169C3.66621 11.0933 5.25486 10.2756 5.5569 10.1257L5.33459 9.67781C5.01893 9.8345 3.38999 10.6726 1.87961 11.933L2.19995 12.3169ZM5.55883 10.1247C5.80777 9.99843 5.96711 9.74403 5.96711 9.46101H5.46711C5.46711 9.55341 5.41565 9.63668 5.33266 9.67877L5.55883 10.1247ZM5.96711 9.46101V7.06155H5.46711V9.46101H5.96711ZM5.96711 7.06155C5.96711 6.85216 5.8619 6.65595 5.69177 6.54049L5.41099 6.95421C5.44432 6.97683 5.46711 7.01826 5.46711 7.06155H5.96711ZM5.69165 6.54041C5.55591 6.4484 5.47355 6.29545 5.47355 6.13031H4.97355C4.97355 6.46335 5.13985 6.77043 5.41111 6.95429L5.69165 6.54041ZM5.47355 6.13031V3.63896H4.97355V6.13031H5.47355ZM5.47355 3.63896C5.47355 2.74569 6.18703 2.02625 7.05458 2.02625V1.52625C5.90286 1.52625 4.97355 2.47763 4.97355 3.63896H5.47355ZM7.05458 2.02625H7.5822V1.52625H7.05458V2.02625ZM7.5822 2.02625C8.44971 2.02625 9.16323 2.7457 9.16323 3.63896H9.66323C9.66323 2.47763 8.73387 1.52625 7.5822 1.52625V2.02625ZM9.16323 3.63896V6.12638H9.66323V3.63896H9.16323ZM9.16323 6.12638C9.16323 6.29374 9.08293 6.44476 8.94673 6.53555L9.22407 6.95158C9.50213 6.76622 9.66323 6.45758 9.66323 6.12638H9.16323ZM8.94866 6.53428C8.7679 6.65238 8.66962 6.85258 8.66962 7.05781H9.16962C9.16962 7.00998 9.19201 6.97254 9.22214 6.95285L8.94866 6.53428ZM8.66962 7.05781V9.45708H9.16962V7.05781H8.66962ZM8.66968 9.45194C8.66383 9.73631 8.82337 9.99937 9.07799 10.1229L9.29627 9.67308C9.21933 9.63575 9.16769 9.55365 9.16957 9.46221L8.66968 9.45194Z" fill="#7C86A2"/>
</svg>
